<?xml version="1.0" encoding="utf-8"?>
<!-- Generator: Adobe Illustrator 19.1.0, SVG Export Plug-In . SVG Version: 6.00 Build 0)  -->
<svg version="1.1" id="Laag_1" xmlns="http://www.w3.org/2000/svg" xmlns:xlink="http://www.w3.org/1999/xlink" x="0px" y="0px"
	 viewBox="0 0 302.3 181.6" style="enable-background:new 0 0 302.3 181.6;" xml:space="preserve">
<style type="text/css">
	.st0{fill:#00A3A6;}
	.st1{fill:#F9B100;}
	.st2{fill:#00435D;}
</style>
<g>
	<path id="XMLID_51_" class="st0" d="M42.4,86h21.1v13.9c0,1.2-1.4,1.9-2.3,1.1L42.4,86"/>
	<path id="XMLID_46_" class="st1" d="M42.4,21.5H3.2c-1.7,0-3.2-1.4-3.2-3.2V2.8C0,1.3,1.2,0,2.8,0h39.6V21.5z"/>
	<g id="XMLID_43_">
		<g id="XMLID_44_">
			<path class="st2" d="M84.8,0v18.8c0,1.5-1.2,2.7-2.7,2.7H42.4V86h38.9c2.2,0,4.3-1.1,5.5-3l47.3-75.6c2-3.2-0.3-7.4-4.1-7.4H84.8
				z"/>
		</g>
	</g>
	<g>
		<path class="st2" d="M85.3,119.8h-7.2v25c0,0.5-0.4,0.8-0.8,0.8h-4.1c-0.5,0-0.8-0.4-0.8-0.8v-25h-7.2c-0.5,0-0.8-0.3-0.8-0.7
			v-3.2c0-0.5,0.4-0.8,0.8-0.8h20.1c0.5,0,0.8,0.3,0.8,0.8v3.2C86.2,119.5,85.8,119.8,85.3,119.8z"/>
		<path class="st2" d="M102.4,145.6h-3.5c-0.5,0-0.8-0.4-0.8-0.8v-0.7c-1.9,1.2-3.8,1.8-5.8,1.8c-3.4,0-7.1-1.3-7.1-6.9v-0.2
			c0-4.7,2.9-7.1,10-7.1h2.6V130c0-2.7-1.2-3.3-3.6-3.3c-2.6,0-5.4,0.2-6.7,0.3c-0.1,0-0.2,0-0.2,0c-0.4,0-0.7-0.1-0.7-0.7v-2.6
			c0-0.5,0.2-0.7,0.8-0.9c1.6-0.3,4-0.7,6.9-0.7c5.8,0,9.1,2.6,9.1,7.9v14.8C103.2,145.2,102.8,145.6,102.4,145.6z M97.7,135.4h-2.6
			c-3.7,0-4.6,1.2-4.6,3.5v0.2c0,2,0.9,2.6,3,2.6c1.5,0,3-0.5,4.2-1.2V135.4z"/>
		<path class="st2" d="M112.4,145.6h-3.8c-0.5,0-0.8-0.4-0.8-0.9v-29.6c0-0.5,0.4-0.8,0.8-0.8h3.8c0.5,0,0.8,0.4,0.8,0.8v29.6
			C113.1,145.2,112.8,145.6,112.4,145.6z"/>
		<path class="st2" d="M136.6,145.6h-5c-0.5,0-0.9-0.5-1.2-0.8l-6.5-9.4v9.3c0,0.5-0.4,0.9-0.8,0.9h-3.8c-0.5,0-0.8-0.4-0.8-0.9
			v-29.6c0-0.5,0.4-0.8,0.8-0.8h3.8c0.5,0,0.8,0.4,0.8,0.8v17.2l7-9.4c0.3-0.4,0.7-0.5,1-0.5h4.6c0.4,0,0.6,0.2,0.6,0.5
			c0,0.1,0,0.2-0.2,0.4l-8.3,10.2l8.4,11.4c0.1,0.1,0.1,0.2,0.1,0.3C137.2,145.3,136.9,145.6,136.6,145.6z"/>
		<path class="st2" d="M159.9,145.6c-1,0.2-1.9,0.3-2.8,0.3c-4.7,0-6.5-1-6.5-6.5v-12.9l-3.9-0.6c-0.5-0.1-0.8-0.4-0.8-0.8v-1.8
			c0-0.5,0.4-0.8,0.8-0.8h3.9V119c0-0.5,0.4-0.7,0.8-0.8l3.8-0.7c0,0,0.1,0,0.2,0c0.4,0,0.7,0.2,0.7,0.6v4.2h3.7
			c0.5,0,0.8,0.4,0.8,0.8v2.4c0,0.5-0.4,0.8-0.8,0.8H156v12.9c0,2.1,0.1,2.3,1.6,2.3h2.2c0.5,0,0.9,0.2,0.9,0.6v2.6
			C160.7,145.3,160.4,145.6,159.9,145.6z"/>
		<path class="st2" d="M182.4,145.6h-3.8c-0.5,0-0.8-0.4-0.8-0.9v-13.5c0-3.6-0.6-4.5-3.4-4.5c-1.4,0-3,0.5-4.8,1.4v16.6
			c0,0.5-0.4,0.9-0.8,0.9H165c-0.5,0-0.8-0.4-0.8-0.9v-29.6c0-0.5,0.4-0.8,0.8-0.8h3.8c0.5,0,0.8,0.4,0.8,0.8v8.5
			c1.6-0.9,3.3-1.5,6.2-1.5c5.7,0,7.4,4,7.4,9.1v13.5C183.2,145.2,182.8,145.6,182.4,145.6z"/>
		<path class="st2" d="M205.7,135.9h-13.4v0.1c0,2.4,1,5.2,4.9,5.2c3,0,5.8-0.3,7.6-0.4c0,0,0.1,0,0.1,0c0.4,0,0.7,0.2,0.7,0.6v2.7
			c0,0.7-0.1,0.9-0.9,1.1c-2.7,0.5-4.3,0.7-8,0.7c-4.1,0-10-2.2-10-10.3v-3c0-6.4,3.6-10.5,9.9-10.5c6.3,0,9.8,4.3,9.8,10.5v2.3
			C206.5,135.5,206.2,135.9,205.7,135.9z M201,131.8c0-3.2-1.8-5.1-4.3-5.1c-2.6,0-4.4,1.8-4.4,5.1v0.2h8.7V131.8z"/>
		<path class="st2" d="M249.6,115.7l-3.9,26.9c-0.4,2.6-1.6,3.3-3.7,3.3h-2.2c-1.8,0-2.8-0.9-3.4-3.3l-3.3-13.6
			c-0.1-0.4-0.1-0.5-0.2-0.5c-0.2,0-0.2,0.1-0.3,0.5l-3.3,13.6c-0.6,2.4-1.6,3.3-3.4,3.3h-2.2c-2.1,0-3.3-0.7-3.7-3.3l-3.9-26.9
			c0,0,0-0.1,0-0.1c0-0.4,0.3-0.6,0.7-0.6h4.4c0.3,0,0.7,0.3,0.7,0.7l3,24.6c0,0.4,0,0.6,0.2,0.6c0.2,0,0.2-0.3,0.3-0.6l3.5-14.5
			c0.2-1,0.8-1.8,2.6-1.8h2.8c1.8,0,2.3,0.9,2.6,1.8l3.5,14.5c0.1,0.4,0.1,0.6,0.2,0.6c0.2,0,0.2-0.3,0.2-0.6l3-24.6
			c0-0.5,0.4-0.7,0.7-0.7h4.4c0.4,0,0.7,0.2,0.7,0.6C249.6,115.6,249.6,115.7,249.6,115.7z"/>
		<path class="st2" d="M268.3,145.6h-3.5c-0.5,0-0.8-0.4-0.8-0.8v-0.7c-1.9,1.2-3.8,1.8-5.8,1.8c-3.4,0-7.1-1.3-7.1-6.9v-0.2
			c0-4.7,2.9-7.1,10-7.1h2.6V130c0-2.7-1.2-3.3-3.6-3.3c-2.6,0-5.4,0.2-6.7,0.3c-0.1,0-0.2,0-0.2,0c-0.4,0-0.7-0.1-0.7-0.7v-2.6
			c0-0.5,0.2-0.7,0.8-0.9c1.6-0.3,4-0.7,6.9-0.7c5.8,0,9.1,2.6,9.1,7.9v14.8C269.2,145.2,268.8,145.6,268.3,145.6z M263.7,135.4
			h-2.6c-3.7,0-4.6,1.2-4.6,3.5v0.2c0,2,0.9,2.6,3,2.6c1.5,0,3-0.5,4.2-1.2V135.4z"/>
		<path class="st2" d="M278.3,145.6h-3.8c-0.5,0-0.8-0.4-0.8-0.9v-29.6c0-0.5,0.4-0.8,0.8-0.8h3.8c0.5,0,0.8,0.4,0.8,0.8v29.6
			C279.1,145.2,278.8,145.6,278.3,145.6z"/>
		<path class="st2" d="M301.8,145.6h-5c-0.5,0-0.9-0.5-1.2-0.8l-6.5-9.4v9.3c0,0.5-0.4,0.9-0.8,0.9h-3.8c-0.5,0-0.8-0.4-0.8-0.9
			v-29.6c0-0.5,0.4-0.8,0.8-0.8h3.8c0.5,0,0.8,0.4,0.8,0.8v17.2l7-9.4c0.3-0.4,0.7-0.5,0.9-0.5h4.6c0.4,0,0.6,0.2,0.6,0.5
			c0,0.1,0,0.2-0.2,0.4l-8.3,10.2l8.4,11.4c0.1,0.1,0.1,0.2,0.1,0.3C302.3,145.3,302.1,145.6,301.8,145.6z"/>
	</g>
	<g>
		<path class="st0" d="M86.2,177.1h-1.1c-0.2,0-0.5-0.2-0.5-0.5v-13.4c0,0,0-0.1,0-0.1c0,0,0,0,0,0l-3.2,6.7c-0.2,0.5-0.5,0.7-1,0.7
			h-1c-0.6,0-0.8-0.2-1-0.7l-3.2-6.7c0,0,0,0,0,0c0,0,0,0,0,0.1v13.4c0,0.2-0.2,0.5-0.5,0.5h-1.1c-0.2,0-0.5-0.2-0.5-0.5V161
			c0-0.4,0.3-0.7,0.7-0.7h1.5c0.4,0,0.6,0.1,0.7,0.4l3.7,7.8c0.1,0.2,0.2,0.2,0.3,0.2c0.1,0,0.2,0,0.3-0.2l3.7-7.8
			c0.1-0.3,0.3-0.4,0.7-0.4H86c0.4,0,0.7,0.3,0.7,0.7v15.7C86.7,176.9,86.5,177.1,86.2,177.1z"/>
		<path class="st0" d="M98.3,177.1h-1c-0.2,0-0.5-0.2-0.5-0.5v-0.5c-1.1,0.6-2.2,1.1-3.5,1.1c-1.9,0-3.7-0.8-3.7-3.7v-0.3
			c0-2.4,1.4-3.7,5.5-3.7h1.7v-0.9c0-1.9-0.7-2.6-2.4-2.6c-1.5,0-2.6,0.1-3.5,0.2c0,0-0.1,0-0.1,0c-0.2,0-0.4-0.1-0.4-0.4v-0.8
			c0-0.2,0.2-0.4,0.5-0.4c0.9-0.2,2-0.3,3.5-0.3c3.1,0,4.4,1.6,4.4,4.3v7.9C98.7,176.9,98.5,177.1,98.3,177.1z M96.7,171.1h-1.7
			c-2.7,0-3.5,0.6-3.5,2.2v0.3c0,1.6,0.8,2.1,2.1,2.1c1,0,2-0.3,3.1-0.9V171.1z"/>
		<path class="st0" d="M107,166.2c-1,0-2,0.3-3.1,0.9v9.5c0,0.2-0.2,0.5-0.5,0.5h-1.1c-0.2,0-0.4-0.2-0.4-0.5v-11.5
			c0-0.3,0.2-0.5,0.4-0.5h1.1c0.2,0,0.4,0.2,0.4,0.5v0.5c1.1-0.8,2.2-1.1,3.2-1.1c0.3,0,0.5,0.1,0.5,0.4v0.9
			C107.5,166.1,107.3,166.2,107,166.2z"/>
		<path class="st0" d="M118.4,177.1h-1.6c-0.3,0-0.3-0.1-0.5-0.3l-4.5-5.6v5.4c0,0.2-0.2,0.5-0.5,0.5h-1.1c-0.3,0-0.5-0.2-0.5-0.5
			v-16.1c0-0.2,0.2-0.5,0.5-0.5h1.1c0.3,0,0.5,0.2,0.5,0.5v9.4l4.5-5.1c0.1-0.2,0.2-0.2,0.5-0.2h1.6c0.2,0,0.3,0.1,0.3,0.3
			c0,0.1,0,0.2-0.1,0.2l-5,5.4l5,6.1c0,0,0.1,0.1,0.1,0.2C118.6,177,118.6,177.1,118.4,177.1z"/>
		<path class="st0" d="M129.5,171.5h-7.6v0.3c0,2.7,1.1,3.7,3.1,3.7c1.3,0,3-0.1,4-0.2c0,0,0.1,0,0.1,0c0.2,0,0.4,0.1,0.4,0.3v0.8
			c0,0.3-0.1,0.5-0.5,0.5c-1.3,0.3-2.5,0.4-4,0.4c-2.6,0-5.1-1.2-5.1-5.4v-2c0-3.2,1.8-5.3,5-5.3c3.3,0,5,2.1,5,5.3v1.2
			C129.9,171.3,129.7,171.5,129.5,171.5z M127.9,169.8c0-2.6-1-3.6-3-3.6c-1.9,0-3,1.1-3,3.6v0.2h6V169.8z"/>
		<path class="st0" d="M138.2,177.2c-0.5,0.1-1,0.1-1.5,0.1c-2.1,0-3.1-0.5-3.1-3v-7.9l-2.2-0.3c-0.3,0-0.4-0.2-0.4-0.4v-0.6
			c0-0.2,0.2-0.4,0.4-0.4h2.2v-2.2c0-0.2,0.2-0.4,0.4-0.5l1.2-0.2c0,0,0,0,0.1,0c0.2,0,0.3,0.2,0.3,0.4v2.5h2.4
			c0.2,0,0.5,0.2,0.5,0.5v0.8c0,0.3-0.2,0.5-0.5,0.5h-2.4v7.9c0,1.2,0.3,1.4,1.2,1.4h1.3c0.3,0,0.5,0.1,0.5,0.3v0.8
			C138.6,177,138.5,177.1,138.2,177.2z"/>
		<path class="st0" d="M142.7,162.7h-1.2c-0.3,0-0.5-0.2-0.5-0.5v-1.8c0-0.2,0.2-0.5,0.5-0.5h1.2c0.2,0,0.5,0.2,0.5,0.5v1.8
			C143.1,162.5,142.9,162.7,142.7,162.7z M142.6,177.1h-1.1c-0.2,0-0.5-0.2-0.5-0.5v-11.5c0-0.3,0.2-0.5,0.5-0.5h1.1
			c0.2,0,0.5,0.2,0.5,0.5v11.5C143.1,176.9,142.9,177.1,142.6,177.1z"/>
		<path class="st0" d="M155.6,177.1h-1.1c-0.2,0-0.5-0.2-0.5-0.5v-7.4c0-2.3-0.8-3-2.5-3c-0.9,0-2,0.4-3.1,0.9v9.5
			c0,0.2-0.2,0.5-0.5,0.5H147c-0.2,0-0.4-0.2-0.4-0.5v-11.5c0-0.3,0.2-0.5,0.4-0.5h1.1c0.2,0,0.4,0.2,0.4,0.5v0.4
			c1.2-0.7,2.3-1,3.6-1c2.7,0,3.9,1.7,3.9,4.7v7.4C156.1,176.9,155.9,177.1,155.6,177.1z"/>
		<path class="st0" d="M169.1,166.2l-0.8,0.2c0.4,0.4,0.8,1.1,0.8,2.3v0.2c0,2.5-1.5,3.9-5,3.9c-1.2,0-2-0.2-2.6-0.5
			c-0.4,0.2-0.6,0.4-0.6,0.8c0,0.4,0.2,0.6,0.7,0.7l3.4,0.9c2.2,0.6,4.3,1.2,4.3,3.3v0.2c0,2.2-1.4,3.5-5.2,3.5
			c-3.6,0-5.2-1.4-5.2-3.6v-0.2c0-1.3,0.7-2.3,1.4-2.9l-0.2-0.1c-0.7-0.3-1-1.1-1-1.8v0c0-0.6,0.3-1.3,0.9-1.6c-0.7-0.7-1-1.5-1-2.6
			v-0.2c0-2,1.1-4,5-4h5c0.3,0,0.5,0.2,0.5,0.5v0.6C169.5,166.1,169.4,166.1,169.1,166.2z M167.3,178c0-0.9-0.7-1.3-2.8-1.8
			l-2.6-0.7c-0.7,0.6-1.1,1.1-1.1,2.3v0.2c0,1.3,0.7,2.1,3.3,2.1c2.6,0,3.2-0.7,3.2-2V178z M167.1,168.7c0-1.4-0.6-2.4-3.1-2.4
			c-2.5,0-3.1,1.2-3.1,2.4v0.2c0,1,0.5,2.3,3.1,2.3c2.4,0,3.1-1,3.1-2.3V168.7z"/>
		<path class="st0" d="M190.4,177.1h-1.6c-0.2,0-0.3-0.1-0.4-0.2l-1.1-1.2c-1.1,0.9-2.6,1.5-4.5,1.5c-2.8,0-5.5-1.1-5.5-4.1V173
			c0-1.9,1-3,3.3-4.5l-0.2-0.2c-2.1-2.4-2.4-3.4-2.4-4.4v-0.2c0-2.4,1.8-3.6,4.7-3.6c2.5,0,4.5,1.2,4.5,3.6v0.2
			c0,1.5-0.6,2.6-3.5,4.5l-0.6,0.4l4.1,4.4c0.6-1.1,0.9-2.5,0.9-4v-0.3c0-0.2,0.1-0.4,0.4-0.4h1c0.2,0,0.4,0.1,0.4,0.4v0.3
			c0,2-0.5,3.8-1.4,5.2l2,2.2c0.1,0.1,0.1,0.2,0.1,0.2C190.7,177,190.5,177.1,190.4,177.1z M181.8,169.7c-1.8,1.1-2.3,1.8-2.3,3.2
			v0.2c0,1.8,1.6,2.6,3.5,2.6c1.4,0,2.6-0.5,3.4-1.2L181.8,169.7z M185.5,163.7c0-1.5-1.1-2.1-2.6-2.1c-1.7,0-2.9,0.5-2.9,2.1v0.2
			c0,0.8,0.1,1.4,1.9,3.4l0.2,0.3l0.8-0.5c2.2-1.4,2.6-1.9,2.6-3.2V163.7z"/>
		<path class="st0" d="M208.4,177c-0.9,0.2-1.8,0.3-3.8,0.3c-2.8,0-6-1.5-6-7v-3.1c0-5.5,3.2-7,6-7c1.4,0,2.8,0.2,3.8,0.4
			c0.2,0,0.4,0.1,0.4,0.3v1.2c0,0.1,0,0.2-0.3,0.2c0,0,0,0-0.1,0c-0.8-0.1-2.5-0.2-3.8-0.2c-2.2,0-3.9,1.3-3.9,5.1v3.1
			c0,3.8,1.7,5.1,3.9,5.1c1.3,0,2.9-0.1,3.7-0.2c0,0,0.1,0,0.1,0c0.3,0,0.4,0.1,0.4,0.4v0.9C208.9,176.8,208.7,176.9,208.4,177z"/>
		<path class="st0" d="M215.5,177.3c-1.6,0-2.8-0.2-3.8-0.3c-0.4-0.1-0.4-0.2-0.4-0.4v-0.9c0-0.2,0.2-0.4,0.4-0.4c0,0,0,0,0.1,0
			c1,0.1,2.7,0.1,3.7,0.1c2.7,0,3.4-1.1,3.4-2.7c0-1.1-0.7-1.8-2.7-3l-2.2-1.3c-2.1-1.3-3.1-2.4-3.1-4.2c0-2.7,2-4,5.4-4
			c1.3,0,3.1,0.1,3.9,0.3c0.2,0,0.4,0.2,0.4,0.4v1c0,0.2-0.2,0.4-0.4,0.4c0,0,0,0,0,0c-1-0.1-2.6-0.1-3.9-0.1
			c-2.3,0-3.3,0.5-3.3,2.1c0,1.1,0.7,1.7,2.5,2.7l2.1,1.2c2.6,1.6,3.6,2.8,3.6,4.6C221.1,174.9,219.9,177.3,215.5,177.3z"/>
		<path class="st0" d="M235.3,177.1h-1.4c-0.3,0-0.4,0-0.6-0.3l-4.1-6.7c-0.1,0-0.1,0-0.2,0c-0.1,0-0.3,0-0.4,0
			c-0.7,0-1.3,0-2.5-0.1v6.7c0,0.2-0.2,0.5-0.4,0.5h-1.2c-0.2,0-0.4-0.2-0.4-0.5v-15.8c0-0.3,0.1-0.5,0.5-0.5c1-0.1,2.7-0.2,4-0.2
			c3.6,0,6.3,1.2,6.3,4.9v0.2c0,2.5-1.5,4-3.6,4.6l4.1,6.9c0,0.1,0.1,0.1,0.1,0.2C235.6,177,235.5,177.1,235.3,177.1z M232.9,165
			c0-2.3-1.5-3-4.3-3c-0.7,0-1.9,0-2.5,0.1v6.2c1,0,2,0,2.5,0c2.8,0,4.3-0.7,4.3-3.1V165z"/>
		<path class="st0" d="M253.3,177.1c-0.6,0.1-2.3,0.2-4.4,0.2c-2.4,0-4.8-0.5-4.8-4.2v-12.3c0-0.3,0.2-0.5,0.5-0.5h1.2
			c0.2,0,0.5,0.2,0.5,0.5v12.3c0,1.7,0.4,2.3,2.8,2.3h4.4c0.2,0,0.2,0.1,0.2,0.3v1.1C253.5,176.9,253.4,177.1,253.3,177.1z"/>
		<path class="st0" d="M263.7,177.1h-1c-0.3,0-0.5-0.2-0.5-0.5v-0.5c-1.1,0.6-2.2,1.1-3.5,1.1c-1.9,0-3.7-0.8-3.7-3.7v-0.3
			c0-2.4,1.4-3.7,5.4-3.7h1.7v-0.9c0-1.9-0.7-2.6-2.4-2.6c-1.5,0-2.6,0.1-3.5,0.2c0,0-0.1,0-0.1,0c-0.2,0-0.4-0.1-0.4-0.4v-0.8
			c0-0.2,0.2-0.4,0.5-0.4c0.9-0.2,2-0.3,3.5-0.3c3.1,0,4.4,1.6,4.4,4.3v7.9C264.2,176.9,264,177.1,263.7,177.1z M262.2,171.1h-1.7
			c-2.7,0-3.5,0.6-3.5,2.2v0.3c0,1.6,0.8,2.1,2.1,2.1c1,0,2-0.3,3.1-0.9V171.1z"/>
		<path class="st0" d="M272,177.3c-1.4,0-2.8-0.1-4.2-0.4c-0.4-0.1-0.5-0.2-0.5-0.5v-15.8c0-0.2,0.2-0.4,0.4-0.4h1.2
			c0.2,0,0.4,0.2,0.4,0.4v4.2c0.9-0.2,1.9-0.2,2.6-0.2c3.3,0,4.9,2,4.9,5.5v1.6C277,175.1,275.4,177.3,272,177.3z M275,170.1
			c0-2.4-0.7-3.8-2.9-3.8c-0.7,0-1.9,0-2.6,0.2v9c0.8,0.1,1.9,0.1,2.6,0.1c2.2,0,2.9-1.4,2.9-3.8V170.1z"/>
	</g>
</g>
</svg>
